<svg width="758" height="145" viewBox="0 0 758 145" fill="none" xmlns="http://www.w3.org/2000/svg">
<circle cx="51" cy="51" r="51" fill="#222222"/>
<path d="M4.056 138V133.104H1.032V131.448H4.056V127.752H1.032V126.096H4.056V121.2H5.808V126.096H9.24V121.2H10.992V126.096H14.04V127.752H10.992V131.448H14.04V133.104H10.992V138H9.24V133.104H5.808V138H4.056ZM5.808 131.448H9.24V127.752H5.808V131.448ZM16.3423 138V136.248C16.3423 135.048 16.5503 134.088 16.9663 133.368C17.3983 132.648 17.9903 132.072 18.7423 131.64C19.5103 131.192 20.4223 130.808 21.4783 130.488L22.7983 130.08C23.5183 129.856 24.1503 129.584 24.6943 129.264C25.2383 128.928 25.6623 128.512 25.9663 128.016C26.2703 127.504 26.4223 126.88 26.4223 126.144V126.048C26.4223 124.992 26.0543 124.16 25.3183 123.552C24.5823 122.928 23.6383 122.616 22.4863 122.616C21.2703 122.616 20.2783 122.944 19.5103 123.6C18.7423 124.24 18.3583 125.216 18.3583 126.528V126.864H16.4383V126.552C16.4383 125.336 16.7023 124.304 17.2303 123.456C17.7583 122.608 18.4783 121.968 19.3903 121.536C20.3023 121.088 21.3343 120.864 22.4863 120.864C23.6383 120.864 24.6543 121.08 25.5343 121.512C26.4303 121.944 27.1263 122.544 27.6223 123.312C28.1183 124.08 28.3663 124.976 28.3663 126V126.216C28.3663 127.304 28.1503 128.208 27.7183 128.928C27.2863 129.632 26.6863 130.208 25.9183 130.656C25.1663 131.104 24.2783 131.488 23.2543 131.808L21.9583 132.216C21.1423 132.472 20.4623 132.744 19.9183 133.032C19.3903 133.304 18.9903 133.656 18.7183 134.088C18.4463 134.52 18.3103 135.104 18.3103 135.84V136.248H28.2223V138H16.3423ZM30.8033 138V136.248C30.8033 135.048 31.0113 134.088 31.4273 133.368C31.8593 132.648 32.4513 132.072 33.2033 131.64C33.9713 131.192 34.8833 130.808 35.9393 130.488L37.2593 130.08C37.9793 129.856 38.6113 129.584 39.1553 129.264C39.6993 128.928 40.1233 128.512 40.4273 128.016C40.7313 127.504 40.8833 126.88 40.8833 126.144V126.048C40.8833 124.992 40.5153 124.16 39.7793 123.552C39.0433 122.928 38.0993 122.616 36.9473 122.616C35.7313 122.616 34.7393 122.944 33.9713 123.6C33.2033 124.24 32.8193 125.216 32.8193 126.528V126.864H30.8993V126.552C30.8993 125.336 31.1633 124.304 31.6913 123.456C32.2193 122.608 32.9393 121.968 33.8513 121.536C34.7633 121.088 35.7953 120.864 36.9473 120.864C38.0993 120.864 39.1153 121.08 39.9953 121.512C40.8913 121.944 41.5873 122.544 42.0833 123.312C42.5793 124.08 42.8273 124.976 42.8273 126V126.216C42.8273 127.304 42.6113 128.208 42.1793 128.928C41.7473 129.632 41.1473 130.208 40.3793 130.656C39.6273 131.104 38.7393 131.488 37.7153 131.808L36.4193 132.216C35.6033 132.472 34.9233 132.744 34.3793 133.032C33.8513 133.304 33.4513 133.656 33.1793 134.088C32.9073 134.52 32.7713 135.104 32.7713 135.84V136.248H42.6833V138H30.8033ZM45.2642 138V136.248C45.2642 135.048 45.4722 134.088 45.8882 133.368C46.3202 132.648 46.9122 132.072 47.6642 131.64C48.4322 131.192 49.3442 130.808 50.4002 130.488L51.7202 130.08C52.4402 129.856 53.0722 129.584 53.6162 129.264C54.1602 128.928 54.5842 128.512 54.8882 128.016C55.1922 127.504 55.3442 126.88 55.3442 126.144V126.048C55.3442 124.992 54.9762 124.16 54.2402 123.552C53.5042 122.928 52.5602 122.616 51.4082 122.616C50.1922 122.616 49.2002 122.944 48.4322 123.6C47.6642 124.24 47.2802 125.216 47.2802 126.528V126.864H45.3602V126.552C45.3602 125.336 45.6242 124.304 46.1522 123.456C46.6802 122.608 47.4002 121.968 48.3122 121.536C49.2242 121.088 50.2562 120.864 51.4082 120.864C52.5602 120.864 53.5762 121.08 54.4562 121.512C55.3522 121.944 56.0482 122.544 56.5442 123.312C57.0402 124.08 57.2882 124.976 57.2882 126V126.216C57.2882 127.304 57.0722 128.208 56.6402 128.928C56.2082 129.632 55.6082 130.208 54.8402 130.656C54.0882 131.104 53.2002 131.488 52.1762 131.808L50.8802 132.216C50.0642 132.472 49.3842 132.744 48.8402 133.032C48.3122 133.304 47.9122 133.656 47.6402 134.088C47.3682 134.52 47.2322 135.104 47.2322 135.84V136.248H57.1442V138H45.2642ZM59.7251 138V136.248C59.7251 135.048 59.9331 134.088 60.3491 133.368C60.7811 132.648 61.3731 132.072 62.1251 131.64C62.8931 131.192 63.8051 130.808 64.8611 130.488L66.1811 130.08C66.9011 129.856 67.5331 129.584 68.0771 129.264C68.6211 128.928 69.0451 128.512 69.3491 128.016C69.6531 127.504 69.8051 126.88 69.8051 126.144V126.048C69.8051 124.992 69.4371 124.16 68.7011 123.552C67.9651 122.928 67.0211 122.616 65.8691 122.616C64.6531 122.616 63.6611 122.944 62.8931 123.6C62.1251 124.24 61.7411 125.216 61.7411 126.528V126.864H59.8211V126.552C59.8211 125.336 60.0851 124.304 60.6131 123.456C61.1411 122.608 61.8611 121.968 62.7731 121.536C63.6851 121.088 64.7171 120.864 65.8691 120.864C67.0211 120.864 68.0371 121.08 68.9171 121.512C69.8131 121.944 70.5091 122.544 71.0051 123.312C71.5011 124.08 71.7491 124.976 71.7491 126V126.216C71.7491 127.304 71.5331 128.208 71.1011 128.928C70.6691 129.632 70.0691 130.208 69.3011 130.656C68.5491 131.104 67.6611 131.488 66.6371 131.808L65.3411 132.216C64.5251 132.472 63.8451 132.744 63.3011 133.032C62.7731 133.304 62.3731 133.656 62.1011 134.088C61.8291 134.52 61.6931 135.104 61.6931 135.84V136.248H71.6051V138H59.7251ZM74.1861 138V136.248C74.1861 135.048 74.3941 134.088 74.8101 133.368C75.2421 132.648 75.8341 132.072 76.5861 131.64C77.3541 131.192 78.2661 130.808 79.3221 130.488L80.6421 130.08C81.3621 129.856 81.9941 129.584 82.5381 129.264C83.0821 128.928 83.5061 128.512 83.8101 128.016C84.1141 127.504 84.2661 126.88 84.2661 126.144V126.048C84.2661 124.992 83.8981 124.16 83.1621 123.552C82.4261 122.928 81.4821 122.616 80.3301 122.616C79.1141 122.616 78.1221 122.944 77.3541 123.6C76.5861 124.24 76.2021 125.216 76.2021 126.528V126.864H74.2821V126.552C74.2821 125.336 74.5461 124.304 75.0741 123.456C75.6021 122.608 76.3221 121.968 77.2341 121.536C78.1461 121.088 79.1781 120.864 80.3301 120.864C81.4821 120.864 82.4981 121.08 83.3781 121.512C84.2741 121.944 84.9701 122.544 85.4661 123.312C85.9621 124.08 86.2101 124.976 86.2101 126V126.216C86.2101 127.304 85.9941 128.208 85.5621 128.928C85.1301 129.632 84.5301 130.208 83.7621 130.656C83.0101 131.104 82.1221 131.488 81.0981 131.808L79.8021 132.216C78.9861 132.472 78.3061 132.744 77.7621 133.032C77.2341 133.304 76.8341 133.656 76.5621 134.088C76.2901 134.52 76.1541 135.104 76.1541 135.84V136.248H86.0661V138H74.1861ZM88.647 138V136.248C88.647 135.048 88.855 134.088 89.271 133.368C89.703 132.648 90.295 132.072 91.047 131.64C91.815 131.192 92.727 130.808 93.783 130.488L95.103 130.08C95.823 129.856 96.455 129.584 96.999 129.264C97.543 128.928 97.967 128.512 98.271 128.016C98.575 127.504 98.727 126.88 98.727 126.144V126.048C98.727 124.992 98.359 124.16 97.623 123.552C96.887 122.928 95.943 122.616 94.791 122.616C93.575 122.616 92.583 122.944 91.815 123.6C91.047 124.24 90.663 125.216 90.663 126.528V126.864H88.743V126.552C88.743 125.336 89.007 124.304 89.535 123.456C90.063 122.608 90.783 121.968 91.695 121.536C92.607 121.088 93.639 120.864 94.791 120.864C95.943 120.864 96.959 121.08 97.839 121.512C98.735 121.944 99.431 122.544 99.927 123.312C100.423 124.08 100.671 124.976 100.671 126V126.216C100.671 127.304 100.455 128.208 100.023 128.928C99.591 129.632 98.991 130.208 98.223 130.656C97.471 131.104 96.583 131.488 95.559 131.808L94.263 132.216C93.447 132.472 92.767 132.744 92.223 133.032C91.695 133.304 91.295 133.656 91.023 134.088C90.751 134.52 90.615 135.104 90.615 135.84V136.248H100.527V138H88.647Z" fill="black"/>
<path d="M168.056 138V133.104H165.032V131.448H168.056V127.752H165.032V126.096H168.056V121.2H169.808V126.096H173.24V121.2H174.992V126.096H178.04V127.752H174.992V131.448H178.04V133.104H174.992V138H173.24V133.104H169.808V138H168.056ZM169.808 131.448H173.24V127.752H169.808V131.448ZM180.342 138V136.248C180.342 135.048 180.55 134.088 180.966 133.368C181.398 132.648 181.99 132.072 182.742 131.64C183.51 131.192 184.422 130.808 185.478 130.488L186.798 130.08C187.518 129.856 188.15 129.584 188.694 129.264C189.238 128.928 189.662 128.512 189.966 128.016C190.27 127.504 190.422 126.88 190.422 126.144V126.048C190.422 124.992 190.054 124.16 189.318 123.552C188.582 122.928 187.638 122.616 186.486 122.616C185.27 122.616 184.278 122.944 183.51 123.6C182.742 124.24 182.358 125.216 182.358 126.528V126.864H180.438V126.552C180.438 125.336 180.702 124.304 181.23 123.456C181.758 122.608 182.478 121.968 183.39 121.536C184.302 121.088 185.334 120.864 186.486 120.864C187.638 120.864 188.654 121.08 189.534 121.512C190.43 121.944 191.126 122.544 191.622 123.312C192.118 124.08 192.366 124.976 192.366 126V126.216C192.366 127.304 192.15 128.208 191.718 128.928C191.286 129.632 190.686 130.208 189.918 130.656C189.166 131.104 188.278 131.488 187.254 131.808L185.958 132.216C185.142 132.472 184.462 132.744 183.918 133.032C183.39 133.304 182.99 133.656 182.718 134.088C182.446 134.52 182.31 135.104 182.31 135.84V136.248H192.222V138H180.342ZM199.699 138V122.496H199.339L196.075 128.472H193.963L197.971 121.2H201.643V138H199.699ZM211.555 138.336C209.555 138.336 207.963 137.76 206.779 136.608C205.595 135.44 205.003 133.744 205.003 131.52V127.68C205.003 125.456 205.595 123.768 206.779 122.616C207.963 121.448 209.555 120.864 211.555 120.864C213.539 120.864 215.059 121.416 216.115 122.52C217.187 123.624 217.723 125.136 217.723 127.056V127.176H215.731V126.984C215.731 125.72 215.387 124.688 214.699 123.888C214.027 123.072 212.979 122.664 211.555 122.664C210.131 122.664 209.019 123.104 208.219 123.984C207.419 124.848 207.019 126.064 207.019 127.632V131.568C207.019 133.136 207.419 134.36 208.219 135.24C209.019 136.104 210.131 136.536 211.555 136.536C212.979 136.536 214.027 136.136 214.699 135.336C215.387 134.52 215.731 133.48 215.731 132.216V131.832H217.723V132.144C217.723 134.064 217.187 135.576 216.115 136.68C215.059 137.784 213.539 138.336 211.555 138.336ZM220.089 138V136.2H222.441V123H220.089V121.2H226.641C228.849 121.2 230.553 121.76 231.753 122.88C232.969 124 233.577 125.72 233.577 128.04V131.16C233.577 133.496 232.969 135.224 231.753 136.344C230.553 137.448 228.849 138 226.641 138H220.089ZM224.457 136.176H226.641C228.273 136.176 229.505 135.776 230.337 134.976C231.169 134.176 231.585 132.936 231.585 131.256V127.968C231.585 126.256 231.169 125.008 230.337 124.224C229.505 123.44 228.273 123.048 226.641 123.048H224.457V136.176ZM242.051 138.336C240.819 138.336 239.763 138.12 238.883 137.688C238.019 137.24 237.363 136.632 236.915 135.864C236.467 135.096 236.243 134.224 236.243 133.248H238.187C238.187 134.24 238.515 135.048 239.171 135.672C239.827 136.28 240.787 136.584 242.051 136.584C243.379 136.584 244.395 136.232 245.099 135.528C245.819 134.808 246.179 133.824 246.179 132.576V130.248H245.867C245.563 130.728 245.075 131.176 244.403 131.592C243.747 131.992 242.819 132.192 241.619 132.192C240.611 132.192 239.683 131.968 238.835 131.52C238.003 131.072 237.339 130.44 236.843 129.624C236.347 128.808 236.099 127.84 236.099 126.72V126.432C236.099 125.28 236.363 124.296 236.891 123.48C237.419 122.648 238.131 122.008 239.027 121.56C239.939 121.096 240.971 120.864 242.123 120.864C243.291 120.864 244.323 121.096 245.219 121.56C246.131 122.008 246.843 122.656 247.355 123.504C247.867 124.336 248.123 125.344 248.123 126.528V132.384C248.123 133.632 247.875 134.704 247.379 135.6C246.899 136.48 246.203 137.16 245.291 137.64C244.379 138.104 243.299 138.336 242.051 138.336ZM242.123 130.56C242.923 130.56 243.627 130.4 244.235 130.08C244.843 129.744 245.315 129.288 245.651 128.712C246.003 128.12 246.179 127.432 246.179 126.648V126.456C246.179 125.256 245.803 124.32 245.051 123.648C244.315 122.96 243.339 122.616 242.123 122.616C240.907 122.616 239.923 122.96 239.171 123.648C238.419 124.32 238.043 125.256 238.043 126.456V126.648C238.043 127.432 238.211 128.12 238.547 128.712C238.899 129.288 239.379 129.744 239.987 130.08C240.611 130.4 241.323 130.56 242.123 130.56ZM250.698 138V136.2H253.05V123H250.698V121.2H257.25C259.458 121.2 261.162 121.76 262.362 122.88C263.578 124 264.186 125.72 264.186 128.04V131.16C264.186 133.496 263.578 135.224 262.362 136.344C261.162 137.448 259.458 138 257.25 138H250.698ZM255.066 136.176H257.25C258.882 136.176 260.114 135.776 260.946 134.976C261.778 134.176 262.194 132.936 262.194 131.256V127.968C262.194 126.256 261.778 125.008 260.946 124.224C260.114 123.44 258.882 123.048 257.25 123.048H255.066V136.176Z" fill="black"/>
<path d="M335.056 138V133.104H332.032V131.448H335.056V127.752H332.032V126.096H335.056V121.2H336.808V126.096H340.24V121.2H341.992V126.096H345.04V127.752H341.992V131.448H345.04V133.104H341.992V138H340.24V133.104H336.808V138H335.056ZM336.808 131.448H340.24V127.752H336.808V131.448ZM352.238 138V122.496H351.878L348.614 128.472H346.502L350.51 121.2H354.182V138H352.238ZM357.23 138V136.2H359.582V123H357.23V121.2H365.654C366.63 121.2 367.494 121.376 368.246 121.728C369.014 122.08 369.606 122.576 370.022 123.216C370.454 123.84 370.67 124.576 370.67 125.424V125.616C370.67 126.4 370.518 127.048 370.214 127.56C369.91 128.056 369.55 128.448 369.134 128.736C368.718 129.008 368.31 129.208 367.91 129.336V129.672C368.31 129.768 368.726 129.96 369.158 130.248C369.59 130.52 369.95 130.912 370.238 131.424C370.542 131.936 370.694 132.584 370.694 133.368V133.608C370.694 134.52 370.47 135.312 370.022 135.984C369.59 136.64 368.99 137.144 368.222 137.496C367.47 137.832 366.606 138 365.63 138H357.23ZM361.598 136.176H365.414C366.47 136.176 367.278 135.928 367.838 135.432C368.398 134.936 368.678 134.264 368.678 133.416V133.2C368.678 132.352 368.398 131.68 367.838 131.184C367.278 130.688 366.47 130.44 365.414 130.44H361.598V136.176ZM361.598 128.616H365.486C366.446 128.616 367.214 128.376 367.79 127.896C368.366 127.4 368.654 126.752 368.654 125.952V125.712C368.654 124.896 368.366 124.248 367.79 123.768C367.23 123.272 366.462 123.024 365.486 123.024H361.598V128.616ZM381.497 138V134.568H372.737V132.264L379.793 121.2H383.441V132.816H386.321V134.568H383.441V138H381.497ZM374.681 132.816H381.497V122.376H381.161L374.681 132.528V132.816ZM394.433 138.336C393.137 138.336 392.009 138.144 391.049 137.76C390.105 137.36 389.369 136.808 388.841 136.104C388.329 135.384 388.073 134.544 388.073 133.584V133.32C388.073 132.488 388.249 131.8 388.601 131.256C388.953 130.712 389.377 130.296 389.873 130.008C390.385 129.704 390.857 129.512 391.289 129.432V129.12C390.857 128.992 390.409 128.784 389.945 128.496C389.497 128.208 389.121 127.816 388.817 127.32C388.529 126.824 388.385 126.216 388.385 125.496V125.232C388.385 124.32 388.641 123.544 389.153 122.904C389.681 122.248 390.401 121.744 391.313 121.392C392.225 121.04 393.265 120.864 394.433 120.864C395.617 120.864 396.657 121.04 397.553 121.392C398.465 121.744 399.177 122.248 399.689 122.904C400.217 123.544 400.481 124.32 400.481 125.232V125.496C400.481 126.216 400.337 126.824 400.049 127.32C399.761 127.816 399.393 128.208 398.945 128.496C398.497 128.784 398.049 128.992 397.601 129.12V129.432C398.049 129.512 398.521 129.704 399.017 130.008C399.513 130.296 399.929 130.712 400.265 131.256C400.617 131.8 400.793 132.488 400.793 133.32V133.584C400.793 134.544 400.537 135.384 400.025 136.104C399.513 136.808 398.777 137.36 397.817 137.76C396.873 138.144 395.745 138.336 394.433 138.336ZM394.433 136.584C395.793 136.584 396.865 136.32 397.649 135.792C398.449 135.264 398.849 134.496 398.849 133.488V133.296C398.849 132.288 398.457 131.52 397.673 130.992C396.889 130.464 395.809 130.2 394.433 130.2C393.073 130.2 392.001 130.464 391.217 130.992C390.433 131.52 390.041 132.288 390.041 133.296V133.488C390.041 134.496 390.433 135.264 391.217 135.792C392.017 136.32 393.089 136.584 394.433 136.584ZM394.433 128.448C395.713 128.448 396.713 128.208 397.433 127.728C398.169 127.232 398.537 126.536 398.537 125.64V125.448C398.537 124.536 398.169 123.84 397.433 123.36C396.697 122.864 395.697 122.616 394.433 122.616C393.169 122.616 392.169 122.864 391.433 123.36C390.697 123.84 390.329 124.536 390.329 125.448V125.64C390.329 126.536 390.697 127.232 391.433 127.728C392.169 128.208 393.169 128.448 394.433 128.448ZM411.45 138V134.568H402.69V132.264L409.746 121.2H413.394V132.816H416.274V134.568H413.394V138H411.45ZM404.634 132.816H411.45V122.376H411.114L404.634 132.528V132.816ZM422.48 138V122.496H422.121L418.857 128.472H416.745L420.753 121.2H424.425V138H422.48Z" fill="black"/>
<path d="M494.056 138V133.104H491.032V131.448H494.056V127.752H491.032V126.096H494.056V121.2H495.808V126.096H499.24V121.2H500.992V126.096H504.04V127.752H500.992V131.448H504.04V133.104H500.992V138H499.24V133.104H495.808V138H494.056ZM495.808 131.448H499.24V127.752H495.808V131.448ZM513.062 138.336C511.062 138.336 509.47 137.76 508.286 136.608C507.102 135.44 506.51 133.744 506.51 131.52V127.68C506.51 125.456 507.102 123.768 508.286 122.616C509.47 121.448 511.062 120.864 513.062 120.864C515.046 120.864 516.566 121.416 517.622 122.52C518.694 123.624 519.23 125.136 519.23 127.056V127.176H517.238V126.984C517.238 125.72 516.894 124.688 516.206 123.888C515.534 123.072 514.486 122.664 513.062 122.664C511.638 122.664 510.526 123.104 509.726 123.984C508.926 124.848 508.526 126.064 508.526 127.632V131.568C508.526 133.136 508.926 134.36 509.726 135.24C510.526 136.104 511.638 136.536 513.062 136.536C514.486 136.536 515.534 136.136 516.206 135.336C516.894 134.52 517.238 133.48 517.238 132.216V131.832H519.23V132.144C519.23 134.064 518.694 135.576 517.622 136.68C516.566 137.784 515.046 138.336 513.062 138.336ZM527.933 138.336C526.637 138.336 525.509 138.144 524.549 137.76C523.605 137.36 522.869 136.808 522.341 136.104C521.829 135.384 521.573 134.544 521.573 133.584V133.32C521.573 132.488 521.749 131.8 522.101 131.256C522.453 130.712 522.877 130.296 523.373 130.008C523.885 129.704 524.357 129.512 524.789 129.432V129.12C524.357 128.992 523.909 128.784 523.445 128.496C522.997 128.208 522.621 127.816 522.317 127.32C522.029 126.824 521.885 126.216 521.885 125.496V125.232C521.885 124.32 522.141 123.544 522.653 122.904C523.181 122.248 523.901 121.744 524.813 121.392C525.725 121.04 526.765 120.864 527.933 120.864C529.117 120.864 530.157 121.04 531.053 121.392C531.965 121.744 532.677 122.248 533.189 122.904C533.717 123.544 533.981 124.32 533.981 125.232V125.496C533.981 126.216 533.837 126.824 533.549 127.32C533.261 127.816 532.893 128.208 532.445 128.496C531.997 128.784 531.549 128.992 531.101 129.12V129.432C531.549 129.512 532.021 129.704 532.517 130.008C533.013 130.296 533.429 130.712 533.765 131.256C534.117 131.8 534.293 132.488 534.293 133.32V133.584C534.293 134.544 534.037 135.384 533.525 136.104C533.013 136.808 532.277 137.36 531.317 137.76C530.373 138.144 529.245 138.336 527.933 138.336ZM527.933 136.584C529.293 136.584 530.365 136.32 531.149 135.792C531.949 135.264 532.349 134.496 532.349 133.488V133.296C532.349 132.288 531.957 131.52 531.173 130.992C530.389 130.464 529.309 130.2 527.933 130.2C526.573 130.2 525.501 130.464 524.717 130.992C523.933 131.52 523.541 132.288 523.541 133.296V133.488C523.541 134.496 523.933 135.264 524.717 135.792C525.517 136.32 526.589 136.584 527.933 136.584ZM527.933 128.448C529.213 128.448 530.213 128.208 530.933 127.728C531.669 127.232 532.037 126.536 532.037 125.64V125.448C532.037 124.536 531.669 123.84 530.933 123.36C530.197 122.864 529.197 122.616 527.933 122.616C526.669 122.616 525.669 122.864 524.933 123.36C524.197 123.84 523.829 124.536 523.829 125.448V125.64C523.829 126.536 524.197 127.232 524.933 127.728C525.669 128.208 526.669 128.448 527.933 128.448ZM537.342 138V121.2H547.686V123.024H539.358V128.64H547.014V130.464H539.358V136.176H547.806V138H537.342ZM558.473 138V134.568H549.713V132.264L556.769 121.2H560.417V132.816H563.297V134.568H560.417V138H558.473ZM551.657 132.816H558.473V122.376H558.137L551.657 132.528V132.816ZM565.073 138V136.2H567.425V123H565.073V121.2H571.625C573.833 121.2 575.537 121.76 576.737 122.88C577.953 124 578.561 125.72 578.561 128.04V131.16C578.561 133.496 577.953 135.224 576.737 136.344C575.537 137.448 573.833 138 571.625 138H565.073ZM569.441 136.176H571.625C573.257 136.176 574.489 135.776 575.321 134.976C576.153 134.176 576.569 132.936 576.569 131.256V127.968C576.569 126.256 576.153 125.008 575.321 124.224C574.489 123.44 573.257 123.048 571.625 123.048H569.441V136.176ZM587.323 138.336C586.027 138.336 584.899 138.144 583.939 137.76C582.995 137.36 582.259 136.808 581.731 136.104C581.219 135.384 580.963 134.544 580.963 133.584V133.32C580.963 132.488 581.139 131.8 581.491 131.256C581.843 130.712 582.267 130.296 582.763 130.008C583.275 129.704 583.747 129.512 584.179 129.432V129.12C583.747 128.992 583.299 128.784 582.835 128.496C582.387 128.208 582.011 127.816 581.707 127.32C581.419 126.824 581.275 126.216 581.275 125.496V125.232C581.275 124.32 581.531 123.544 582.043 122.904C582.571 122.248 583.291 121.744 584.203 121.392C585.115 121.04 586.155 120.864 587.323 120.864C588.507 120.864 589.547 121.04 590.443 121.392C591.355 121.744 592.067 122.248 592.579 122.904C593.107 123.544 593.371 124.32 593.371 125.232V125.496C593.371 126.216 593.227 126.824 592.939 127.32C592.651 127.816 592.283 128.208 591.835 128.496C591.387 128.784 590.939 128.992 590.491 129.12V129.432C590.939 129.512 591.411 129.704 591.907 130.008C592.403 130.296 592.819 130.712 593.155 131.256C593.507 131.8 593.683 132.488 593.683 133.32V133.584C593.683 134.544 593.427 135.384 592.915 136.104C592.403 136.808 591.667 137.36 590.707 137.76C589.763 138.144 588.635 138.336 587.323 138.336ZM587.323 136.584C588.683 136.584 589.755 136.32 590.539 135.792C591.339 135.264 591.739 134.496 591.739 133.488V133.296C591.739 132.288 591.347 131.52 590.563 130.992C589.779 130.464 588.699 130.2 587.323 130.2C585.963 130.2 584.891 130.464 584.107 130.992C583.323 131.52 582.931 132.288 582.931 133.296V133.488C582.931 134.496 583.323 135.264 584.107 135.792C584.907 136.32 585.979 136.584 587.323 136.584ZM587.323 128.448C588.603 128.448 589.603 128.208 590.323 127.728C591.059 127.232 591.427 126.536 591.427 125.64V125.448C591.427 124.536 591.059 123.84 590.323 123.36C589.587 122.864 588.587 122.616 587.323 122.616C586.059 122.616 585.059 122.864 584.323 123.36C583.587 123.84 583.219 124.536 583.219 125.448V125.64C583.219 126.536 583.587 127.232 584.323 127.728C585.059 128.208 586.059 128.448 587.323 128.448Z" fill="black"/>
<path d="M662.056 138V133.104H659.032V131.448H662.056V127.752H659.032V126.096H662.056V121.2H663.808V126.096H667.24V121.2H668.992V126.096H672.04V127.752H668.992V131.448H672.04V133.104H668.992V138H667.24V133.104H663.808V138H662.056ZM663.808 131.448H667.24V127.752H663.808V131.448ZM674.99 138V121.2H685.142V123.024H677.006V128.664H684.494V130.488H677.006V138H674.99ZM685.577 138L690.761 121.2H694.313L699.497 138H697.409L696.113 133.752H688.961L687.665 138H685.577ZM689.465 131.928H695.585L692.705 122.424H692.369L689.465 131.928ZM702.014 138V121.2H712.166V123.024H704.03V128.664H711.518V130.488H704.03V138H702.014ZM720.231 138.336C718.999 138.336 717.943 138.12 717.063 137.688C716.199 137.24 715.543 136.632 715.095 135.864C714.647 135.096 714.423 134.224 714.423 133.248H716.367C716.367 134.24 716.695 135.048 717.351 135.672C718.007 136.28 718.967 136.584 720.231 136.584C721.559 136.584 722.575 136.232 723.279 135.528C723.999 134.808 724.359 133.824 724.359 132.576V130.248H724.047C723.743 130.728 723.255 131.176 722.583 131.592C721.927 131.992 720.999 132.192 719.799 132.192C718.791 132.192 717.863 131.968 717.015 131.52C716.183 131.072 715.519 130.44 715.023 129.624C714.527 128.808 714.279 127.84 714.279 126.72V126.432C714.279 125.28 714.543 124.296 715.071 123.48C715.599 122.648 716.311 122.008 717.207 121.56C718.119 121.096 719.151 120.864 720.303 120.864C721.471 120.864 722.503 121.096 723.399 121.56C724.311 122.008 725.023 122.656 725.535 123.504C726.047 124.336 726.303 125.344 726.303 126.528V132.384C726.303 133.632 726.055 134.704 725.559 135.6C725.079 136.48 724.383 137.16 723.471 137.64C722.559 138.104 721.479 138.336 720.231 138.336ZM720.303 130.56C721.103 130.56 721.807 130.4 722.415 130.08C723.023 129.744 723.495 129.288 723.831 128.712C724.183 128.12 724.359 127.432 724.359 126.648V126.456C724.359 125.256 723.983 124.32 723.231 123.648C722.495 122.96 721.519 122.616 720.303 122.616C719.087 122.616 718.103 122.96 717.351 123.648C716.599 124.32 716.223 125.256 716.223 126.456V126.648C716.223 127.432 716.391 128.12 716.727 128.712C717.079 129.288 717.559 129.744 718.167 130.08C718.791 130.4 719.503 130.56 720.303 130.56ZM729.67 138V121.2H739.822V123.024H731.686V128.664H739.174V130.488H731.686V138H729.67ZM744.359 138V137.4C744.359 136.84 744.407 136.368 744.503 135.984C744.599 135.6 744.783 135.144 745.055 134.616L751.463 123.216V122.952H741.479V121.2H753.503V123.504L746.807 135.504C746.615 135.84 746.479 136.144 746.399 136.416C746.335 136.688 746.303 137.032 746.303 137.448V138H744.359Z" fill="black"/>
<circle cx="215" cy="51" r="51" fill="#21CD9D"/>
<circle cx="379" cy="51" r="51" fill="#1B4841"/>
<circle cx="543" cy="51" r="51" fill="#C8E4D8"/>
<circle cx="707" cy="51" r="50" fill="#FAF9F7" stroke="black" stroke-width="2"/>
</svg>
