<svg width="1440" height="2493" viewBox="0 0 1440 2493" fill="none" xmlns="http://www.w3.org/2000/svg">
<ellipse cx="677.69" cy="267.68" rx="1276.97" ry="1375.09" transform="rotate(-0.0715849 677.69 267.68)" fill="url(#paint0_radial)" fill-opacity="0.7"/>
<ellipse cx="146.041" cy="487.505" rx="581.567" ry="491.548" transform="rotate(-25.9549 146.041 487.505)" fill="url(#paint1_radial)" fill-opacity="0.7"/>
<ellipse cx="1251.65" cy="222.403" rx="464.756" ry="625.697" transform="rotate(157.952 1251.65 222.403)" fill="url(#paint2_radial)"/>
<ellipse cx="914.544" cy="1387.19" rx="1507.17" ry="1836.43" transform="rotate(-85.8142 914.544 1387.19)" fill="url(#paint3_radial)" fill-opacity="0.7"/>
<ellipse cx="405.343" cy="1074.11" rx="1219.98" ry="943.457" transform="rotate(-30.9046 405.343 1074.11)" fill="url(#paint4_radial)" fill-opacity="0.8"/>
<ellipse cx="1772.34" cy="1843.1" rx="1219.98" ry="943.457" transform="rotate(-30.9046 1772.34 1843.1)" fill="url(#paint5_radial)"/>
<ellipse cx="430.584" cy="74.2216" rx="279.377" ry="300.842" transform="rotate(60.9901 430.584 74.2216)" fill="url(#paint6_radial)" fill-opacity="0.6"/>
<ellipse cx="828.582" cy="1838.77" rx="1219.98" ry="1836.43" transform="rotate(-85.8142 828.582 1838.77)" fill="url(#paint7_radial)"/>
<ellipse cx="1604.78" cy="74.4849" rx="529.808" ry="885.824" transform="rotate(56.1424 1604.78 74.4849)" fill="url(#paint8_radial)"/>
<path d="M1739.2 808.396C2006.82 1255.48 1755.12 1898.44 1177 2244.5C598.883 2590.56 -86.7226 2508.67 -354.343 2061.59C-621.963 1614.51 -370.256 971.542 207.861 625.483C785.978 279.424 1471.58 361.317 1739.2 808.396Z" fill="url(#paint9_radial)" fill-opacity="0.7"/>
<ellipse cx="133.783" cy="1769.48" rx="529.808" ry="885.824" transform="rotate(56.1424 133.783 1769.48)" fill="url(#paint10_radial)"/>
<defs>
<radialGradient id="paint0_radial" cx="0" cy="0" r="1" gradientUnits="userSpaceOnUse" gradientTransform="translate(91.6073 -218.733) rotate(50.7688) scale(1293.36 1201.07)">
<stop stop-color="#0038FF" stop-opacity="0.46"/>
<stop offset="0.473958" stop-color="#48A2F4" stop-opacity="0.37"/>
<stop offset="1" stop-color="white" stop-opacity="0"/>
</radialGradient>
<radialGradient id="paint1_radial" cx="0" cy="0" r="1" gradientUnits="userSpaceOnUse" gradientTransform="translate(-192.44 341.73) rotate(30.2621) scale(634.619 535.786)">
<stop stop-color="#68FFA4" stop-opacity="0.971791"/>
<stop offset="1" stop-color="white" stop-opacity="0"/>
</radialGradient>
<radialGradient id="paint2_radial" cx="0" cy="0" r="1" gradientUnits="userSpaceOnUse" gradientTransform="translate(1092.92 27.1011) rotate(56.1511) scale(367.516 404.945)">
<stop stop-color="#2E9BFF" stop-opacity="0.49"/>
<stop offset="1" stop-color="white" stop-opacity="0"/>
</radialGradient>
<radialGradient id="paint3_radial" cx="0" cy="0" r="1" gradientUnits="userSpaceOnUse" gradientTransform="translate(39.3173 796.002) rotate(64.0866) scale(896.216 1030.94)">
<stop stop-color="#68FFA4" stop-opacity="0.971791"/>
<stop offset="1" stop-color="white" stop-opacity="0"/>
</radialGradient>
<radialGradient id="paint4_radial" cx="0" cy="0" r="1" gradientUnits="userSpaceOnUse" gradientTransform="translate(63.4728 820.979) rotate(103.18) scale(918.074 1296.81)">
<stop stop-color="#3C0CFF" stop-opacity="0.63"/>
<stop offset="0.5" stop-color="#F9F9F9" stop-opacity="0.31"/>
<stop offset="1" stop-color="white" stop-opacity="0"/>
</radialGradient>
<radialGradient id="paint5_radial" cx="0" cy="0" r="1" gradientUnits="userSpaceOnUse" gradientTransform="translate(1558.94 1853.35) rotate(-153.762) scale(811.189 1145.83)">
<stop stop-color="#756BE8" stop-opacity="0.78"/>
<stop offset="0.764941" stop-color="white" stop-opacity="0"/>
</radialGradient>
<radialGradient id="paint6_radial" cx="0" cy="0" r="1" gradientUnits="userSpaceOnUse" gradientTransform="translate(301.49 -10.991) rotate(53.9646) scale(334.201 310.355)">
<stop offset="0.233463" stop-color="#756BE8"/>
<stop offset="0.880208" stop-color="white" stop-opacity="0"/>
</radialGradient>
<radialGradient id="paint7_radial" cx="0" cy="0" r="1" gradientUnits="userSpaceOnUse" gradientTransform="translate(120.127 1247.58) rotate(68.5311) scale(866.207 863.411)">
<stop stop-color="#0029FF"/>
<stop offset="1" stop-color="white" stop-opacity="0"/>
</radialGradient>
<radialGradient id="paint8_radial" cx="0" cy="0" r="1" gradientUnits="userSpaceOnUse" gradientTransform="translate(1512.11 84.1038) rotate(-133.181) scale(461.761 820.756)">
<stop stop-color="#0CFFC5" stop-opacity="0.49"/>
<stop offset="0.764941" stop-color="white" stop-opacity="0"/>
</radialGradient>
<radialGradient id="paint9_radial" cx="0" cy="0" r="1" gradientUnits="userSpaceOnUse" gradientTransform="translate(143.5 1507) rotate(33.0396) scale(610.764 862.721)">
<stop stop-color="#0CFFC5" stop-opacity="0.49"/>
<stop offset="1" stop-color="white" stop-opacity="0"/>
</radialGradient>
<radialGradient id="paint10_radial" cx="0" cy="0" r="1" gradientUnits="userSpaceOnUse" gradientTransform="translate(41.1074 1779.1) rotate(-133.181) scale(461.761 820.756)">
<stop stop-color="#0CFFC5" stop-opacity="0.49"/>
<stop offset="0.764941" stop-color="white" stop-opacity="0"/>
</radialGradient>
</defs>
</svg>
